<svg version="1.1" viewBox="0.0 0.0 960.0 960.0" fill="none" stroke="none" stroke-linecap="square" stroke-miterlimit="10" xmlns:xlink="http://www.w3.org/1999/xlink" xmlns="http://www.w3.org/2000/svg"><clipPath id="p.0"><path d="m0 0l960.0 0l0 960.0l-960.0 0l0 -960.0z" clip-rule="nonzero"/></clipPath><g clip-path="url(#p.0)"><path fill="#000000" fill-opacity="0.0" d="m0 0l960.0 0l0 960.0l-960.0 0z" fill-rule="evenodd"/><defs><linearGradient id="p.1" gradientUnits="userSpaceOnUse" gradientTransform="matrix(22.803559094398874 0.0 0.0 22.803559094398874 0.0 0.0)" spreadMethod="pad" x1="1.6214043172808028" y1="9.63705285745009" x2="1.6167602210257406" y2="32.44061147894844"><stop offset="0.0" stop-color="#38761d"/><stop offset="1.0" stop-color="#38761d" stop-opacity="0.13333334"/></linearGradient></defs><path fill="url(#p.1)" d="m81.730034 219.93962c-12.871086 0 -23.54824 4.2469177 -32.031456 12.740738c-8.483219 8.49382 -12.724827 18.403275 -12.724827 29.728363c0 11.325104 4.2416077 21.234558 12.724827 29.728363c8.483215 8.493835 19.16037 12.740753 32.031456 12.740753l122.86039 0c12.871094 0 23.548248 -4.2469177 32.031464 -12.740753c8.483215 -8.493805 12.724823 -18.40326 12.724823 -29.728363c0 -11.3250885 -4.2416077 -21.234543 -12.724823 -29.728363c-8.483215 -8.49382 -19.16037 -12.740738 -32.031464 -12.740738zm224.659 0c-12.871094 0 -23.548248 4.2469177 -32.031464 12.740738c-8.483215 8.49382 -12.724823 18.403275 -12.724823 29.728363c0 11.325104 4.2416077 21.234558 12.724823 29.728363c8.483215 8.493835 19.16037 12.740753 32.031464 12.740753l66.69565 0c12.871063 0 23.548218 -4.2469177 32.031433 -12.740753c8.483215 -8.493805 12.724823 -18.40326 12.724823 -29.728363c0 -11.3250885 -4.2416077 -21.234543 -12.724823 -29.728363c-8.483215 -8.49382 -19.16037 -12.740738 -32.031433 -12.740738zm-168.49425 108.7209c-12.871094 0 -23.548248 4.2469177 -32.031464 12.740723c-8.483215 8.493835 -12.724823 18.40329 -12.724823 29.728394c0 11.325073 4.2416077 21.234528 12.724823 29.728363c8.483215 8.493805 19.16037 12.740723 32.031464 12.740723l122.8604 0c12.871063 0 23.548218 -4.2469177 32.031433 -12.740723c8.483215 -8.493835 12.724823 -18.40329 12.724823 -29.728363c0 -11.325104 -4.2416077 -21.234558 -12.724823 -29.728394c-8.483215 -8.493805 -19.16037 -12.740723 -32.031433 -12.740723zm224.65898 0c-12.871094 0 -23.548218 4.2469177 -32.031464 12.740723c-8.483215 8.493835 -12.724823 18.40329 -12.724823 29.728394c0 11.325073 4.2416077 21.234528 12.724823 29.728363c8.483246 8.493805 19.16037 12.740723 32.031464 12.740723l66.69565 0c12.871094 0 23.548248 -4.2469177 32.031464 -12.740723c8.483215 -8.493835 12.724823 -18.40329 12.724823 -29.728363c0 -11.325104 -4.2416077 -21.234558 -12.724823 -29.728394c-8.483215 -8.493805 -19.16037 -12.740723 -32.031464 -12.740723zm-224.65898 108.72092c-12.871094 0 -23.548248 4.246887 -32.031464 12.740723c-8.483215 8.493805 -12.724823 18.40329 -12.724823 29.728363c0 11.325104 4.2416077 21.234558 12.724823 29.728363c8.483215 8.493805 19.16037 12.740753 32.031464 12.740753l66.69563 0c12.871094 0 23.548248 -4.2469482 32.031464 -12.740753c8.483215 -8.493805 12.724823 -18.40326 12.724823 -29.728363c0 -11.325073 -4.2416077 -21.234558 -12.724823 -29.728363c-8.483215 -8.493835 -19.16037 -12.740723 -32.031464 -12.740723zm224.65898 0c-12.871094 0 -23.548218 4.246887 -32.031464 12.740723c-8.483215 8.493805 -12.724823 18.40329 -12.724823 29.728363c0 11.325104 4.2416077 21.234558 12.724823 29.728363c8.483246 8.493805 19.16037 12.740753 32.031464 12.740753l66.69565 0c12.871094 0 23.548248 -4.2469482 32.031464 -12.740753c8.483215 -8.493805 12.724823 -18.40326 12.724823 -29.728363c0 -11.325073 -4.2416077 -21.234558 -12.724823 -29.728363c-8.483215 -8.493835 -19.16037 -12.740723 -32.031464 -12.740723zm-224.65898 108.72092c-12.871094 0 -23.548248 4.246887 -32.031464 12.740723c-8.483215 8.493774 -12.724823 18.40326 -12.724823 29.728333c0 11.325134 4.2416077 21.234558 12.724823 29.728394c8.483215 8.493835 19.16037 12.740723 32.031464 12.740723l66.69563 0c12.871094 0 23.548248 -4.246887 32.031464 -12.740723c8.483215 -8.493835 12.724823 -18.40326 12.724823 -29.728394c0 -11.325073 -4.2416077 -21.234558 -12.724823 -29.728333c-8.483215 -8.493835 -19.16037 -12.740723 -32.031464 -12.740723zm-48.266586 108.72089c-16.381386 0 -29.252476 4.246887 -38.613266 12.740723c-9.36079 8.493835 -14.041187 18.40326 -14.041187 29.728394c0 11.325073 4.680397 21.234558 14.041187 29.728333c9.36079 8.493835 22.23188 12.740723 38.613266 12.740723l163.2288 0c16.381393 0 29.252457 -4.246887 38.613266 -12.740723c9.360779 -8.493774 14.041168 -18.40326 14.041168 -29.728333c0 -11.325134 -4.6803894 -21.234558 -14.041168 -29.728394c-9.360809 -8.493835 -22.231873 -12.740723 -38.613266 -12.740723z" fill-rule="evenodd"/><defs><linearGradient id="p.2" gradientUnits="userSpaceOnUse" gradientTransform="matrix(22.803559094398874 0.0 0.0 22.803559094398874 0.0 0.0)" spreadMethod="pad" x1="1.6214043172808028" y1="9.63705285745009" x2="1.6167602210257406" y2="32.44061147894844"><stop offset="0.0" stop-color="#38761d"/><stop offset="1.0" stop-color="#38761d" stop-opacity="0.13333334"/></linearGradient></defs><path fill="url(#p.2)" d="m595.11096 219.93962c-16.381409 0 -29.252502 4.2469177 -38.61328 12.740738c-9.360779 8.49382 -14.041199 18.403275 -14.041199 29.728363c0 11.325104 4.68042 21.234558 14.041199 29.728363c9.360779 8.493835 22.231873 12.740753 38.61328 12.740753l219.39355 0c16.381348 0 29.252441 -4.2469177 38.61322 -12.740753c9.36084 -8.493805 14.041199 -18.40326 14.041199 -29.728363c0 -11.3250885 -4.680359 -21.234543 -14.041199 -29.728363c-9.360779 -8.49382 -22.231873 -12.740738 -38.61322 -12.740738zm-7.8981934 108.7209c-12.871094 0 -23.548218 4.2469177 -32.031433 12.740723c-8.483215 8.493835 -12.7248535 18.40329 -12.7248535 29.728394c0 11.325073 4.241638 21.234528 12.7248535 29.728363c8.483215 8.493805 19.16034 12.740723 32.031433 12.740723l66.69568 0c12.871033 0 23.548218 -4.2469177 32.031433 -12.740723c8.483215 -8.493835 12.7247925 -18.40329 12.7247925 -29.728363c0 -11.325104 -4.241577 -21.234558 -12.7247925 -29.728394c-8.483215 -8.493805 -19.1604 -12.740723 -32.031433 -12.740723zm224.659 0c-12.871094 0 -23.548218 4.2469177 -32.031433 12.740723c-8.483215 8.493835 -12.7248535 18.40329 -12.7248535 29.728394c0 11.325073 4.241638 21.234528 12.7248535 29.728363c8.483215 8.493805 19.16034 12.740723 32.031433 12.740723l66.69568 0c12.871033 0 23.548218 -4.2469177 32.031433 -12.740723c8.483215 -8.493835 12.7247925 -18.40329 12.7247925 -29.728363c0 -11.325104 -4.241577 -21.234558 -12.7247925 -29.728394c-8.483215 -8.493805 -19.1604 -12.740723 -32.031433 -12.740723zm-224.659 108.72092c-12.871094 0 -23.548218 4.246887 -32.031433 12.740723c-8.483215 8.493805 -12.7248535 18.40329 -12.7248535 29.728363c0 11.325104 4.241638 21.234558 12.7248535 29.728363c8.483215 8.493805 19.16034 12.740753 32.031433 12.740753l66.69568 0c12.871033 0 23.548218 -4.2469482 32.031433 -12.740753c8.483215 -8.493805 12.7247925 -18.40326 12.7247925 -29.728363c0 -11.325073 -4.241577 -21.234558 -12.7247925 -29.728363c-8.483215 -8.493835 -19.1604 -12.740723 -32.031433 -12.740723zm224.659 0c-12.871094 0 -23.548218 4.246887 -32.031433 12.740723c-8.483215 8.493805 -12.7248535 18.40329 -12.7248535 29.728363c0 11.325104 4.241638 21.234558 12.7248535 29.728363c8.483215 8.493805 19.16034 12.740753 32.031433 12.740753l66.69568 0c12.871033 0 23.548218 -4.2469482 32.031433 -12.740753c8.483215 -8.493805 12.7247925 -18.40326 12.7247925 -29.728363c0 -11.325073 -4.241577 -21.234558 -12.7247925 -29.728363c-8.483215 -8.493835 -19.1604 -12.740723 -32.031433 -12.740723zm-224.659 108.72092c-12.871094 0 -23.548218 4.246887 -32.031433 12.740723c-8.483215 8.493774 -12.7248535 18.40326 -12.7248535 29.728333c0 11.325134 4.241638 21.234558 12.7248535 29.728394c8.483215 8.493835 19.16034 12.740723 32.031433 12.740723l66.69568 0c12.871033 0 23.548218 -4.246887 32.031433 -12.740723c8.483215 -8.493835 12.7247925 -18.40326 12.7247925 -29.728394c0 -11.325073 -4.241577 -21.234558 -12.7247925 -29.728333c-8.483215 -8.493835 -19.1604 -12.740723 -32.031433 -12.740723zm224.659 0c-12.871094 0 -23.548218 4.246887 -32.031433 12.740723c-8.483215 8.493774 -12.7248535 18.40326 -12.7248535 29.728333c0 11.325134 4.241638 21.234558 12.7248535 29.728394c8.483215 8.493835 19.16034 12.740723 32.031433 12.740723l66.69568 0c12.871033 0 23.548218 -4.246887 32.031433 -12.740723c8.483215 -8.493835 12.7247925 -18.40326 12.7247925 -29.728394c0 -11.325073 -4.241577 -21.234558 -12.7247925 -29.728333c-8.483215 -8.493835 -19.1604 -12.740723 -32.031433 -12.740723zm-224.659 108.72089c-12.871094 0 -23.548218 4.246887 -32.031433 12.740723c-8.483215 8.493835 -12.7248535 18.40326 -12.7248535 29.728394c0 11.325073 4.241638 21.234558 12.7248535 29.728333c8.483215 8.493835 19.16034 12.740723 32.031433 12.740723l66.69568 0c12.871033 0 23.548218 -4.246887 32.031433 -12.740723c8.483215 -8.493774 12.7247925 -18.40326 12.7247925 -29.728333c0 -11.325134 -4.241577 -21.234558 -12.7247925 -29.728394c-8.483215 -8.493835 -19.1604 -12.740723 -32.031433 -12.740723zm224.659 0c-12.871094 0 -23.548218 4.246887 -32.031433 12.740723c-8.483215 8.493835 -12.7248535 18.40326 -12.7248535 29.728394c0 11.325073 4.241638 21.234558 12.7248535 29.728333c8.483215 8.493835 19.16034 12.740723 32.031433 12.740723l66.69568 0c12.871033 0 23.548218 -4.246887 32.031433 -12.740723c8.483215 -8.493774 12.7247925 -18.40326 12.7247925 -29.728333c0 -11.325134 -4.241577 -21.234558 -12.7247925 -29.728394c-8.483215 -8.493835 -19.1604 -12.740723 -32.031433 -12.740723z" fill-rule="evenodd"/></g></svg>